<svg xmlns="http://www.w3.org/2000/svg" xmlns:xlink="http://www.w3.org/1999/xlink" width="1080" zoomAndPan="magnify" viewBox="0 0 810 809.999993" height="1080" preserveAspectRatio="xMidYMid meet" version="1.0"><defs><g/><clipPath id="e32a36b756"><path d="M 86.773438 122 L 731.773438 122 L 731.773438 688 L 86.773438 688 Z M 86.773438 122 " clip-rule="nonzero"/></clipPath></defs><g clip-path="url(#e32a36b756)"><path fill="#d9d9d9" d="M 106.917969 243.84375 L 630.675781 243.84375 C 641.753906 243.84375 650.820312 234.777344 650.820312 223.699219 L 650.820312 143.121094 C 650.820312 132.039062 641.753906 122.976562 630.675781 122.976562 L 106.917969 122.976562 C 95.839844 122.976562 86.773438 132.039062 86.773438 143.121094 L 86.773438 223.699219 C 86.773438 234.777344 95.839844 243.84375 106.917969 243.84375 Z M 711.253906 344.566406 L 187.496094 344.566406 C 176.417969 344.566406 167.351562 353.628906 167.351562 364.710938 L 167.351562 445.289062 C 167.351562 456.367188 176.417969 465.433594 187.496094 465.433594 L 711.253906 465.433594 C 722.332031 465.433594 731.398438 456.367188 731.398438 445.289062 L 731.398438 364.710938 C 731.398438 353.628906 722.332031 344.566406 711.253906 344.566406 Z M 630.675781 566.15625 L 106.917969 566.15625 C 95.839844 566.15625 86.773438 575.21875 86.773438 586.300781 L 86.773438 666.878906 C 86.773438 677.957031 95.839844 687.023438 106.917969 687.023438 L 630.675781 687.023438 C 641.753906 687.023438 650.820312 677.957031 650.820312 666.878906 L 650.820312 586.300781 C 650.820312 575.21875 641.753906 566.15625 630.675781 566.15625 Z M 630.675781 566.15625 " fill-opacity="1" fill-rule="nonzero"/></g><path fill="#414042" d="M 635.882812 235.726562 C 634.148438 235.699219 632.164062 236.0625 632.164062 236.0625 L 632.164062 239.457031 L 634.160156 239.457031 L 634.136719 240.96875 C 634.136719 241.53125 633.582031 241.8125 632.476562 241.8125 C 631.371094 241.8125 630.394531 241.339844 629.546875 240.40625 C 628.699219 239.464844 628.273438 238.09375 628.273438 236.289062 C 628.273438 234.476562 628.6875 233.144531 629.515625 232.28125 C 630.339844 231.421875 631.421875 230.988281 632.75 230.988281 C 633.308594 230.988281 633.890625 231.078125 634.492188 231.265625 C 635.09375 231.445312 635.496094 231.617188 635.699219 231.777344 C 635.902344 231.945312 636.097656 232.023438 636.28125 232.023438 C 636.460938 232.023438 636.757812 231.808594 637.164062 231.375 C 637.570312 230.945312 637.9375 230.292969 638.261719 229.421875 C 638.582031 228.550781 638.742188 227.878906 638.742188 227.402344 C 638.742188 226.929688 638.730469 226.605469 638.710938 226.433594 C 638.261719 225.941406 637.429688 225.546875 636.214844 225.253906 C 635 224.964844 633.644531 224.820312 632.140625 224.820312 C 628.832031 224.820312 626.246094 225.863281 624.378906 227.953125 C 622.507812 230.042969 621.574219 232.753906 621.574219 236.09375 C 621.574219 240.011719 622.53125 242.984375 624.441406 245.007812 C 626.351562 247.03125 628.863281 248.042969 631.980469 248.042969 C 633.652344 248.042969 635.140625 247.898438 636.4375 247.605469 C 637.738281 247.316406 638.601562 247.019531 639.03125 246.71875 L 639.160156 236.609375 C 639.160156 236.023438 637.617188 235.757812 635.882812 235.726562 M 651.863281 231.007812 C 650.832031 231.007812 649.96875 231.484375 649.269531 232.429688 C 648.574219 233.378906 648.222656 234.707031 648.222656 236.417969 C 648.222656 238.132812 648.554688 239.445312 649.222656 240.359375 C 649.886719 241.277344 650.761719 241.734375 651.847656 241.734375 C 652.933594 241.734375 653.8125 241.269531 654.488281 240.34375 C 655.164062 239.417969 655.503906 238.09375 655.503906 236.371094 C 655.503906 234.648438 655.152344 233.320312 654.457031 232.394531 C 653.757812 231.472656 652.894531 231.007812 651.863281 231.007812 M 651.847656 248.027344 C 648.832031 248.027344 646.371094 247.039062 644.46875 245.058594 C 642.570312 243.078125 641.621094 240.1875 641.621094 236.386719 C 641.621094 232.585938 642.582031 229.707031 644.503906 227.746094 C 646.425781 225.785156 648.90625 224.808594 651.945312 224.808594 C 654.984375 224.808594 657.4375 225.769531 659.304688 227.699219 C 661.175781 229.625 662.105469 232.546875 662.105469 236.449219 C 662.105469 240.359375 661.152344 243.265625 659.238281 245.171875 C 657.328125 247.078125 654.867188 248.027344 651.847656 248.027344 M 671.1875 231.234375 L 671.1875 240.894531 C 671.1875 241.34375 671.21875 241.628906 671.285156 241.75 C 671.347656 241.867188 671.542969 241.925781 671.863281 241.925781 C 673.046875 241.925781 673.941406 241.484375 674.554688 240.601562 C 675.167969 239.71875 675.46875 238.25 675.46875 236.195312 C 675.46875 234.136719 675.152344 232.796875 674.523438 232.171875 C 673.886719 231.546875 672.882812 231.234375 671.507812 231.234375 Z M 665.003906 246.222656 L 665.003906 226.84375 C 665.003906 226.304688 665.136719 225.878906 665.40625 225.566406 C 665.675781 225.253906 666.023438 225.097656 666.453125 225.097656 L 671.832031 225.097656 C 675.246094 225.097656 677.839844 225.960938 679.609375 227.683594 C 681.382812 229.40625 682.269531 232.117188 682.269531 235.820312 C 682.269531 243.746094 678.894531 247.707031 672.152344 247.707031 L 666.644531 247.707031 C 665.550781 247.707031 665.003906 247.214844 665.003906 246.222656 M 694.699219 231.007812 C 693.667969 231.007812 692.800781 231.484375 692.105469 232.429688 C 691.40625 233.378906 691.058594 234.707031 691.058594 236.417969 C 691.058594 238.132812 691.390625 239.445312 692.058594 240.359375 C 692.722656 241.277344 693.597656 241.734375 694.683594 241.734375 C 695.765625 241.734375 696.648438 241.269531 697.324219 240.34375 C 698 239.417969 698.339844 238.09375 698.339844 236.371094 C 698.339844 234.648438 697.988281 233.320312 697.292969 232.394531 C 696.59375 231.472656 695.730469 231.007812 694.699219 231.007812 M 694.683594 248.027344 C 691.664062 248.027344 689.207031 247.039062 687.304688 245.058594 C 685.40625 243.078125 684.457031 240.1875 684.457031 236.386719 C 684.457031 232.585938 685.417969 229.707031 687.335938 227.746094 C 689.261719 225.785156 691.738281 224.808594 694.777344 224.808594 C 697.816406 224.808594 700.269531 225.769531 702.140625 227.699219 C 704.007812 229.625 704.941406 232.546875 704.941406 236.449219 C 704.941406 240.359375 703.984375 243.265625 702.074219 245.171875 C 700.164062 247.078125 697.699219 248.027344 694.683594 248.027344 M 717.007812 247.234375 C 717.007812 247.664062 715.945312 247.882812 713.816406 247.882812 C 711.691406 247.882812 710.628906 247.664062 710.628906 247.234375 L 710.628906 231.019531 L 706.765625 231.019531 C 706.398438 231.019531 706.140625 230.527344 705.992188 229.53125 C 705.925781 229.050781 705.894531 228.566406 705.894531 228.082031 C 705.894531 227.585938 705.925781 227.101562 705.992188 226.628906 C 706.140625 225.636719 706.398438 225.140625 706.765625 225.140625 L 720.777344 225.140625 C 721.140625 225.140625 721.398438 225.636719 721.550781 226.628906 C 721.613281 227.101562 721.644531 227.585938 721.644531 228.082031 C 721.644531 228.578125 721.613281 229.058594 721.550781 229.535156 C 721.398438 230.527344 721.140625 231.019531 720.777344 231.019531 L 717.007812 231.019531 Z M 717.007812 247.234375 " fill-opacity="1" fill-rule="nonzero"/><path fill="#6d6e71" d="M 629.074219 261.332031 C 628.894531 261.699219 628.570312 262.035156 628.089844 262.339844 C 627.613281 262.644531 627.003906 262.796875 626.265625 262.796875 C 625.292969 262.796875 624.511719 262.488281 623.914062 261.867188 C 623.324219 261.25 623.027344 260.359375 623.027344 259.199219 L 623.027344 256.304688 C 623.027344 255.171875 623.304688 254.300781 623.867188 253.691406 C 624.425781 253.089844 625.175781 252.78125 626.113281 252.78125 C 627.027344 252.78125 627.738281 253.023438 628.242188 253.503906 C 628.742188 253.980469 629.003906 254.652344 629.027344 255.503906 L 629.015625 255.542969 L 628.265625 255.542969 C 628.242188 254.886719 628.050781 254.382812 627.695312 254.027344 C 627.339844 253.671875 626.8125 253.492188 626.113281 253.492188 C 625.40625 253.492188 624.847656 253.730469 624.441406 254.210938 C 624.03125 254.691406 623.828125 255.386719 623.828125 256.300781 L 623.828125 259.210938 C 623.828125 260.15625 624.046875 260.878906 624.488281 261.375 C 624.925781 261.867188 625.519531 262.113281 626.265625 262.113281 C 626.8125 262.113281 627.25 262.019531 627.578125 261.820312 C 627.910156 261.625 628.136719 261.382812 628.265625 261.101562 L 628.265625 258.566406 L 626.253906 258.566406 L 626.253906 257.863281 L 629.074219 257.863281 Z M 632.785156 262.074219 C 633.226562 262.074219 633.621094 261.949219 633.964844 261.691406 C 634.3125 261.4375 634.554688 261.109375 634.695312 260.714844 L 634.695312 259.148438 L 633.414062 259.148438 C 632.871094 259.148438 632.433594 259.304688 632.105469 259.613281 C 631.78125 259.921875 631.617188 260.304688 631.617188 260.761719 C 631.617188 261.148438 631.71875 261.464844 631.925781 261.710938 C 632.128906 261.957031 632.414062 262.074219 632.785156 262.074219 M 634.816406 262.660156 C 634.78125 262.453125 634.753906 262.25 634.726562 262.046875 C 634.707031 261.882812 634.695312 261.722656 634.695312 261.558594 C 634.480469 261.917969 634.195312 262.214844 633.847656 262.449219 C 633.5 262.683594 633.109375 262.800781 632.683594 262.800781 C 632.085938 262.800781 631.628906 262.613281 631.304688 262.242188 C 630.980469 261.871094 630.816406 261.367188 630.816406 260.734375 C 630.816406 260.0625 631.050781 259.523438 631.523438 259.125 C 631.992188 258.726562 632.632812 258.527344 633.4375 258.527344 L 634.695312 258.527344 L 634.695312 257.636719 C 634.695312 257.128906 634.566406 256.726562 634.3125 256.433594 C 634.050781 256.148438 633.691406 256 633.230469 256 C 632.800781 256 632.445312 256.140625 632.167969 256.417969 C 631.890625 256.691406 631.75 257.03125 631.75 257.433594 L 631.003906 257.425781 L 630.988281 257.386719 C 630.96875 256.839844 631.175781 256.359375 631.609375 255.929688 C 632.039062 255.503906 632.59375 255.292969 633.269531 255.292969 C 633.9375 255.292969 634.472656 255.496094 634.882812 255.902344 C 635.292969 256.3125 635.496094 256.894531 635.496094 257.65625 L 635.496094 261.199219 C 635.496094 261.460938 635.507812 261.710938 635.53125 261.949219 C 635.550781 262.1875 635.59375 262.425781 635.648438 262.660156 Z M 638.023438 255.410156 L 638.089844 256.53125 C 638.28125 256.128906 638.535156 255.820312 638.851562 255.601562 C 639.164062 255.382812 639.539062 255.277344 639.964844 255.277344 C 640.398438 255.277344 640.765625 255.402344 641.0625 255.660156 C 641.359375 255.917969 641.578125 256.304688 641.71875 256.824219 C 641.894531 256.34375 642.148438 255.964844 642.472656 255.6875 C 642.800781 255.414062 643.195312 255.277344 643.65625 255.277344 C 644.289062 255.277344 644.777344 255.53125 645.125 256.046875 C 645.476562 256.5625 645.648438 257.351562 645.648438 258.417969 L 645.648438 262.640625 L 644.84375 262.640625 L 644.84375 258.402344 C 644.84375 257.515625 644.722656 256.890625 644.484375 256.53125 C 644.246094 256.171875 643.902344 255.992188 643.457031 255.992188 C 642.992188 255.992188 642.625 256.191406 642.363281 256.589844 C 642.101562 256.992188 641.941406 257.496094 641.882812 258.101562 L 641.882812 262.640625 L 641.082031 262.640625 L 641.082031 258.40625 C 641.082031 257.542969 640.960938 256.921875 640.714844 256.550781 C 640.464844 256.179688 640.125 255.996094 639.683594 255.996094 C 639.261719 255.996094 638.921875 256.125 638.667969 256.382812 C 638.410156 256.636719 638.226562 256.988281 638.117188 257.433594 L 638.117188 262.640625 L 637.316406 262.640625 L 637.316406 255.410156 Z M 649.679688 255.984375 C 649.179688 255.984375 648.769531 256.214844 648.445312 256.671875 C 648.121094 257.132812 647.953125 257.699219 647.941406 258.371094 L 651.269531 258.371094 L 651.269531 258.0625 C 651.269531 257.464844 651.128906 256.96875 650.847656 256.574219 C 650.566406 256.179688 650.179688 255.984375 649.679688 255.984375 M 649.792969 262.78125 C 649.015625 262.78125 648.382812 262.488281 647.886719 261.902344 C 647.394531 261.320312 647.148438 260.570312 647.148438 259.660156 L 647.148438 258.460938 C 647.148438 257.546875 647.394531 256.785156 647.890625 256.179688 C 648.386719 255.578125 648.984375 255.277344 649.679688 255.277344 C 650.4375 255.277344 651.023438 255.546875 651.441406 256.085938 C 651.859375 256.625 652.066406 257.347656 652.066406 258.257812 L 652.066406 259.054688 L 647.941406 259.054688 L 647.941406 259.65625 C 647.941406 260.355469 648.109375 260.9375 648.441406 261.402344 C 648.773438 261.867188 649.226562 262.101562 649.792969 262.101562 C 650.1875 262.101562 650.53125 262.03125 650.816406 261.894531 C 651.109375 261.75 651.355469 261.550781 651.554688 261.296875 L 651.882812 261.867188 C 651.664062 262.144531 651.382812 262.367188 651.039062 262.53125 C 650.695312 262.699219 650.277344 262.78125 649.792969 262.78125 M 658.597656 255.984375 C 658.09375 255.984375 657.683594 256.214844 657.359375 256.671875 C 657.039062 257.132812 656.871094 257.699219 656.855469 258.371094 L 660.183594 258.371094 L 660.183594 258.0625 C 660.183594 257.464844 660.046875 256.96875 659.765625 256.574219 C 659.484375 256.179688 659.097656 255.984375 658.597656 255.984375 M 658.710938 262.78125 C 657.933594 262.78125 657.296875 262.488281 656.804688 261.902344 C 656.3125 261.320312 656.0625 260.570312 656.0625 259.660156 L 656.0625 258.460938 C 656.0625 257.546875 656.3125 256.785156 656.804688 256.179688 C 657.304688 255.578125 657.898438 255.277344 658.597656 255.277344 C 659.351562 255.277344 659.941406 255.546875 660.355469 256.085938 C 660.773438 256.625 660.984375 257.351562 660.984375 258.257812 L 660.984375 259.054688 L 656.855469 259.054688 L 656.855469 259.65625 C 656.855469 260.355469 657.023438 260.9375 657.359375 261.402344 C 657.691406 261.867188 658.140625 262.101562 658.710938 262.101562 C 659.105469 262.101562 659.449219 262.03125 659.734375 261.894531 C 660.023438 261.75 660.269531 261.550781 660.472656 261.296875 L 660.796875 261.867188 C 660.578125 262.144531 660.296875 262.367188 659.953125 262.53125 C 659.609375 262.699219 659.195312 262.78125 658.710938 262.78125 M 663.109375 255.410156 L 663.175781 256.605469 C 663.367188 256.179688 663.621094 255.851562 663.941406 255.621094 C 664.257812 255.394531 664.628906 255.277344 665.058594 255.277344 C 665.703125 255.277344 666.195312 255.515625 666.539062 255.996094 C 666.882812 256.472656 667.054688 257.21875 667.054688 258.230469 L 667.054688 262.640625 L 666.25 262.640625 L 666.25 258.238281 C 666.25 257.410156 666.128906 256.832031 665.890625 256.5 C 665.652344 256.164062 665.300781 255.996094 664.84375 255.996094 C 664.433594 255.996094 664.089844 256.132812 663.816406 256.402344 C 663.539062 256.671875 663.332031 257.027344 663.195312 257.480469 L 663.195312 262.640625 L 662.394531 262.640625 L 662.394531 255.410156 Z M 669.421875 259.671875 C 669.421875 260.402344 669.558594 260.988281 669.839844 261.421875 C 670.117188 261.859375 670.542969 262.078125 671.105469 262.078125 C 671.492188 262.078125 671.820312 261.972656 672.085938 261.761719 C 672.351562 261.550781 672.5625 261.253906 672.71875 260.882812 L 672.71875 257.300781 C 672.570312 256.914062 672.363281 256.601562 672.105469 256.363281 C 671.84375 256.128906 671.515625 256.007812 671.121094 256.007812 C 670.558594 256.007812 670.128906 256.253906 669.847656 256.75 C 669.5625 257.246094 669.421875 257.890625 669.421875 258.683594 Z M 668.613281 258.683594 C 668.613281 257.65625 668.820312 256.835938 669.234375 256.214844 C 669.644531 255.597656 670.21875 255.289062 670.945312 255.289062 C 671.351562 255.289062 671.707031 255.386719 672.011719 255.585938 C 672.3125 255.78125 672.566406 256.066406 672.765625 256.425781 L 672.84375 255.421875 L 673.523438 255.421875 L 673.523438 262.660156 C 673.523438 263.585938 673.308594 264.304688 672.878906 264.8125 C 672.449219 265.316406 671.835938 265.574219 671.046875 265.574219 C 670.761719 265.574219 670.457031 265.53125 670.128906 265.441406 C 669.800781 265.355469 669.511719 265.242188 669.257812 265.101562 L 669.480469 264.394531 C 669.707031 264.539062 669.949219 264.648438 670.207031 264.722656 C 670.476562 264.800781 670.75 264.839844 671.03125 264.839844 C 671.605469 264.839844 672.03125 264.65625 672.304688 264.285156 C 672.582031 263.914062 672.71875 263.375 672.71875 262.660156 L 672.71875 261.785156 C 672.515625 262.109375 672.261719 262.359375 671.964844 262.53125 C 671.667969 262.707031 671.324219 262.792969 670.933594 262.792969 C 670.207031 262.792969 669.640625 262.507812 669.230469 261.9375 C 668.820312 261.371094 668.613281 260.613281 668.613281 259.671875 Z M 676.238281 262.660156 L 675.429688 262.660156 L 675.429688 255.410156 L 676.238281 255.410156 Z M 676.238281 253.347656 L 675.429688 253.347656 L 675.429688 252.203125 L 676.238281 252.203125 Z M 678.851562 255.410156 L 678.917969 256.605469 C 679.109375 256.179688 679.363281 255.851562 679.679688 255.621094 C 680 255.394531 680.371094 255.277344 680.796875 255.277344 C 681.441406 255.277344 681.9375 255.515625 682.28125 255.996094 C 682.625 256.472656 682.796875 257.21875 682.796875 258.230469 L 682.796875 262.640625 L 681.992188 262.640625 L 681.992188 258.238281 C 681.992188 257.410156 681.871094 256.832031 681.632812 256.5 C 681.390625 256.164062 681.042969 255.996094 680.585938 255.996094 C 680.175781 255.996094 679.832031 256.132812 679.558594 256.402344 C 679.28125 256.671875 679.074219 257.027344 678.9375 257.480469 L 678.9375 262.640625 L 678.136719 262.640625 L 678.136719 255.410156 Z M 686.832031 255.984375 C 686.328125 255.984375 685.917969 256.214844 685.59375 256.671875 C 685.273438 257.132812 685.105469 257.699219 685.089844 258.371094 L 688.417969 258.371094 L 688.417969 258.0625 C 688.417969 257.464844 688.28125 256.96875 688 256.574219 C 687.71875 256.179688 687.332031 255.984375 686.832031 255.984375 M 686.945312 262.78125 C 686.167969 262.78125 685.53125 262.488281 685.039062 261.902344 C 684.546875 261.320312 684.300781 260.570312 684.300781 259.660156 L 684.300781 258.460938 C 684.300781 257.546875 684.546875 256.785156 685.042969 256.179688 C 685.539062 255.578125 686.132812 255.277344 686.832031 255.277344 C 687.585938 255.277344 688.175781 255.546875 688.59375 256.085938 C 689.011719 256.625 689.21875 257.351562 689.21875 258.257812 L 689.21875 259.054688 L 685.089844 259.054688 L 685.089844 259.65625 C 685.089844 260.355469 685.257812 260.9375 685.59375 261.402344 C 685.925781 261.867188 686.375 262.101562 686.945312 262.101562 C 687.339844 262.101562 687.683594 262.03125 687.96875 261.894531 C 688.257812 261.75 688.503906 261.550781 688.707031 261.296875 L 689.035156 261.867188 C 688.8125 262.144531 688.53125 262.367188 688.1875 262.53125 C 687.84375 262.699219 687.429688 262.78125 686.945312 262.78125 " fill-opacity="1" fill-rule="nonzero"/><path fill="#ffffff" d="M 549.425781 250.089844 L 549.425781 252.347656 C 567.953125 268.507812 586.484375 268.507812 605.011719 252.347656 L 605.011719 250.089844 Z M 549.425781 250.089844 " fill-opacity="1" fill-rule="nonzero"/><path fill="#478cbf" d="M 549.425781 250.089844 L 559.804688 251.046875 C 560.351562 251.09375 560.691406 251.410156 560.828125 252.003906 L 561.101562 256.59375 L 570.117188 257.277344 L 570.664062 253.101562 C 570.753906 252.597656 571.09375 252.257812 571.6875 252.074219 L 582.75 252.074219 C 583.339844 252.257812 583.683594 252.597656 583.773438 253.101562 L 584.320312 257.277344 L 593.335938 256.59375 L 593.605469 252.003906 C 593.742188 251.410156 594.085938 251.09375 594.632812 251.046875 L 605.011719 250.089844 L 605.011719 233.242188 C 606.378906 231.460938 607.652344 229.613281 608.835938 227.695312 C 607.242188 225.003906 605.351562 222.535156 603.167969 220.300781 C 601.210938 221.214844 599.34375 222.285156 597.566406 223.519531 C 595.746094 221.828125 593.742188 220.367188 591.558594 219.136719 C 591.878906 216.808594 592.058594 214.480469 592.105469 212.152344 C 589.417969 210.871094 586.617188 209.914062 583.707031 209.273438 C 582.523438 211.238281 581.472656 213.269531 580.5625 215.371094 C 578.332031 215.050781 576.101562 215.050781 573.871094 215.371094 C 572.960938 213.269531 571.914062 211.238281 570.730469 209.273438 C 567.816406 209.914062 565.015625 210.871094 562.332031 212.152344 C 562.375 214.480469 562.558594 216.808594 562.878906 219.136719 C 560.691406 220.367188 558.6875 221.828125 556.867188 223.519531 C 555.09375 222.285156 553.226562 221.214844 551.269531 220.300781 C 549.082031 222.535156 547.191406 225.003906 545.601562 227.695312 C 546.785156 229.613281 548.058594 231.460938 549.425781 233.242188 Z M 549.425781 252.347656 L 549.425781 255.019531 C 549.425781 273.917969 604.945312 273.917969 605.011719 255.019531 L 605.011719 252.347656 L 595.859375 253.167969 L 595.519531 257.894531 C 595.429688 258.351562 595.109375 258.648438 594.5625 258.785156 L 583.5 259.539062 C 582.953125 259.539062 582.589844 259.285156 582.40625 258.785156 L 581.726562 254.332031 L 572.710938 254.332031 L 572.027344 258.785156 C 571.847656 259.285156 571.480469 259.539062 570.933594 259.539062 L 559.871094 258.785156 C 559.324219 258.648438 559.007812 258.351562 558.917969 257.894531 L 558.574219 253.167969 Z M 549.425781 252.347656 " fill-opacity="1" fill-rule="nonzero"/><path fill="#ffffff" d="M 575.238281 245.089844 C 575.238281 247.417969 579.199219 247.417969 579.199219 245.089844 L 579.199219 239.199219 C 579.199219 236.871094 575.238281 236.871094 575.238281 239.199219 Z M 575.238281 245.089844 " fill-opacity="1" fill-rule="nonzero"/><path fill="#ffffff" d="M 597.910156 240.023438 C 597.910156 240.425781 597.871094 240.828125 597.792969 241.222656 C 597.710938 241.621094 597.597656 242.007812 597.441406 242.378906 C 597.289062 242.753906 597.097656 243.109375 596.875 243.445312 C 596.648438 243.78125 596.394531 244.09375 596.109375 244.378906 C 595.824219 244.664062 595.511719 244.921875 595.179688 245.144531 C 594.84375 245.371094 594.488281 245.5625 594.117188 245.714844 C 593.742188 245.871094 593.359375 245.988281 592.960938 246.066406 C 592.566406 246.144531 592.167969 246.183594 591.761719 246.183594 C 591.359375 246.183594 590.960938 246.144531 590.566406 246.066406 C 590.167969 245.988281 589.785156 245.871094 589.410156 245.714844 C 589.039062 245.5625 588.683594 245.371094 588.347656 245.144531 C 588.011719 244.921875 587.703125 244.664062 587.417969 244.378906 C 587.132812 244.09375 586.878906 243.78125 586.652344 243.445312 C 586.429688 243.109375 586.238281 242.753906 586.085938 242.378906 C 585.929688 242.007812 585.8125 241.621094 585.734375 241.222656 C 585.65625 240.828125 585.617188 240.425781 585.617188 240.023438 C 585.617188 239.617188 585.65625 239.214844 585.734375 238.820312 C 585.8125 238.421875 585.929688 238.039062 586.085938 237.664062 C 586.238281 237.289062 586.429688 236.933594 586.652344 236.597656 C 586.878906 236.261719 587.132812 235.949219 587.417969 235.664062 C 587.703125 235.378906 588.011719 235.121094 588.347656 234.898438 C 588.683594 234.671875 589.039062 234.484375 589.410156 234.328125 C 589.785156 234.171875 590.167969 234.054688 590.566406 233.976562 C 590.960938 233.898438 591.359375 233.859375 591.761719 233.859375 C 592.167969 233.859375 592.566406 233.898438 592.960938 233.976562 C 593.359375 234.054688 593.742188 234.171875 594.117188 234.328125 C 594.488281 234.484375 594.84375 234.671875 595.179688 234.898438 C 595.511719 235.121094 595.824219 235.378906 596.109375 235.664062 C 596.394531 235.949219 596.648438 236.261719 596.875 236.597656 C 597.097656 236.933594 597.289062 237.289062 597.441406 237.664062 C 597.597656 238.039062 597.710938 238.421875 597.792969 238.820312 C 597.871094 239.214844 597.910156 239.617188 597.910156 240.023438 Z M 597.910156 240.023438 " fill-opacity="1" fill-rule="nonzero"/><path fill="#ffffff" d="M 568.816406 240.023438 C 568.816406 240.425781 568.777344 240.828125 568.699219 241.222656 C 568.621094 241.621094 568.503906 242.007812 568.351562 242.378906 C 568.195312 242.753906 568.007812 243.109375 567.78125 243.445312 C 567.558594 243.78125 567.304688 244.09375 567.019531 244.378906 C 566.734375 244.664062 566.421875 244.921875 566.085938 245.144531 C 565.75 245.371094 565.398438 245.5625 565.023438 245.714844 C 564.652344 245.871094 564.265625 245.988281 563.871094 246.066406 C 563.476562 246.144531 563.074219 246.183594 562.671875 246.183594 C 562.269531 246.183594 561.867188 246.144531 561.472656 246.066406 C 561.078125 245.988281 560.691406 245.871094 560.320312 245.714844 C 559.949219 245.5625 559.59375 245.371094 559.257812 245.144531 C 558.921875 244.921875 558.613281 244.664062 558.328125 244.378906 C 558.039062 244.09375 557.785156 243.78125 557.5625 243.445312 C 557.335938 243.109375 557.148438 242.753906 556.992188 242.378906 C 556.839844 242.007812 556.722656 241.621094 556.644531 241.222656 C 556.566406 240.828125 556.527344 240.425781 556.527344 240.023438 C 556.527344 239.617188 556.566406 239.214844 556.644531 238.820312 C 556.722656 238.421875 556.839844 238.039062 556.992188 237.664062 C 557.148438 237.289062 557.335938 236.933594 557.5625 236.597656 C 557.785156 236.261719 558.039062 235.949219 558.328125 235.664062 C 558.613281 235.378906 558.921875 235.121094 559.257812 234.898438 C 559.59375 234.671875 559.949219 234.484375 560.320312 234.328125 C 560.691406 234.171875 561.078125 234.054688 561.472656 233.976562 C 561.867188 233.898438 562.269531 233.859375 562.671875 233.859375 C 563.074219 233.859375 563.476562 233.898438 563.871094 233.976562 C 564.265625 234.054688 564.652344 234.171875 565.023438 234.328125 C 565.398438 234.484375 565.75 234.671875 566.085938 234.898438 C 566.421875 235.121094 566.734375 235.378906 567.019531 235.664062 C 567.304688 235.949219 567.558594 236.261719 567.78125 236.597656 C 568.007812 236.933594 568.195312 237.289062 568.351562 237.664062 C 568.503906 238.039062 568.621094 238.421875 568.699219 238.820312 C 568.777344 239.214844 568.816406 239.617188 568.816406 240.023438 Z M 568.816406 240.023438 " fill-opacity="1" fill-rule="nonzero"/><path fill="#414042" d="M 567.316406 240.433594 C 567.316406 240.703125 567.289062 240.96875 567.238281 241.234375 C 567.183594 241.5 567.105469 241.753906 567.003906 242.003906 C 566.902344 242.253906 566.773438 242.492188 566.625 242.714844 C 566.476562 242.941406 566.304688 243.148438 566.117188 243.339844 C 565.925781 243.527344 565.71875 243.699219 565.496094 243.847656 C 565.269531 244 565.035156 244.125 564.785156 244.230469 C 564.539062 244.332031 564.28125 244.410156 564.019531 244.460938 C 563.753906 244.515625 563.488281 244.542969 563.21875 244.542969 C 562.949219 244.542969 562.683594 244.515625 562.417969 244.460938 C 562.15625 244.410156 561.898438 244.332031 561.652344 244.230469 C 561.402344 244.125 561.164062 244 560.941406 243.847656 C 560.71875 243.699219 560.511719 243.527344 560.320312 243.339844 C 560.132812 243.148438 559.960938 242.941406 559.8125 242.714844 C 559.664062 242.492188 559.535156 242.253906 559.433594 242.003906 C 559.332031 241.753906 559.253906 241.5 559.199219 241.234375 C 559.148438 240.96875 559.121094 240.703125 559.121094 240.433594 C 559.121094 240.164062 559.148438 239.894531 559.199219 239.632812 C 559.253906 239.367188 559.332031 239.109375 559.433594 238.859375 C 559.535156 238.609375 559.664062 238.375 559.8125 238.148438 C 559.960938 237.925781 560.132812 237.71875 560.320312 237.527344 C 560.511719 237.335938 560.71875 237.167969 560.941406 237.015625 C 561.164062 236.867188 561.402344 236.738281 561.652344 236.636719 C 561.898438 236.535156 562.15625 236.457031 562.417969 236.402344 C 562.683594 236.351562 562.949219 236.324219 563.21875 236.324219 C 563.488281 236.324219 563.753906 236.351562 564.019531 236.402344 C 564.28125 236.457031 564.539062 236.535156 564.785156 236.636719 C 565.035156 236.738281 565.269531 236.867188 565.496094 237.015625 C 565.71875 237.167969 565.925781 237.335938 566.117188 237.527344 C 566.304688 237.71875 566.476562 237.925781 566.625 238.148438 C 566.773438 238.375 566.902344 238.609375 567.003906 238.859375 C 567.105469 239.109375 567.183594 239.367188 567.238281 239.632812 C 567.289062 239.894531 567.316406 240.164062 567.316406 240.433594 Z M 567.316406 240.433594 " fill-opacity="1" fill-rule="nonzero"/><path fill="#414042" d="M 595.316406 240.433594 C 595.316406 240.703125 595.289062 240.96875 595.234375 241.234375 C 595.183594 241.5 595.105469 241.753906 595.003906 242.003906 C 594.898438 242.253906 594.773438 242.492188 594.625 242.714844 C 594.472656 242.941406 594.304688 243.148438 594.113281 243.339844 C 593.925781 243.527344 593.71875 243.699219 593.492188 243.847656 C 593.269531 244 593.035156 244.125 592.785156 244.230469 C 592.535156 244.332031 592.28125 244.410156 592.015625 244.460938 C 591.753906 244.515625 591.484375 244.542969 591.21875 244.542969 C 590.949219 244.542969 590.683594 244.515625 590.417969 244.460938 C 590.152344 244.410156 589.898438 244.332031 589.648438 244.230469 C 589.402344 244.125 589.164062 244 588.941406 243.847656 C 588.71875 243.699219 588.511719 243.527344 588.320312 243.339844 C 588.128906 243.148438 587.960938 242.941406 587.808594 242.714844 C 587.660156 242.492188 587.535156 242.253906 587.433594 242.003906 C 587.328125 241.753906 587.25 241.5 587.199219 241.234375 C 587.144531 240.96875 587.121094 240.703125 587.121094 240.433594 C 587.121094 240.164062 587.144531 239.894531 587.199219 239.632812 C 587.25 239.367188 587.328125 239.109375 587.433594 238.859375 C 587.535156 238.609375 587.660156 238.375 587.808594 238.148438 C 587.960938 237.925781 588.128906 237.71875 588.320312 237.527344 C 588.511719 237.335938 588.71875 237.167969 588.941406 237.015625 C 589.164062 236.867188 589.402344 236.738281 589.648438 236.636719 C 589.898438 236.535156 590.152344 236.457031 590.417969 236.402344 C 590.683594 236.351562 590.949219 236.324219 591.21875 236.324219 C 591.484375 236.324219 591.753906 236.351562 592.015625 236.402344 C 592.28125 236.457031 592.535156 236.535156 592.785156 236.636719 C 593.035156 236.738281 593.269531 236.867188 593.492188 237.015625 C 593.71875 237.167969 593.925781 237.335938 594.113281 237.527344 C 594.304688 237.71875 594.472656 237.925781 594.625 238.148438 C 594.773438 238.375 594.898438 238.609375 595.003906 238.859375 C 595.105469 239.109375 595.183594 239.367188 595.234375 239.632812 C 595.289062 239.894531 595.316406 240.164062 595.316406 240.433594 Z M 595.316406 240.433594 " fill-opacity="1" fill-rule="nonzero"/><g fill="#6d6e71" fill-opacity="0.502"><g transform="translate(246.698402, 372.249613)"><g><path d="M 10.09375 -0.015625 L 10.03125 -75.28125 L 27.84375 -75.296875 L 27.890625 -14.09375 L 60.53125 -14.109375 L 58.703125 -0.046875 Z M 10.09375 -0.015625 "/></g></g></g><g fill="#6d6e71" fill-opacity="0.502"><g transform="translate(311.860589, 372.193859)"><g><path d="M 62.6875 -37.734375 C 62.695312 -29.765625 61.5625 -22.820312 59.28125 -16.90625 C 57.007812 -10.988281 53.640625 -6.390625 49.171875 -3.109375 C 44.703125 0.171875 39.171875 1.8125 32.578125 1.8125 C 26.023438 1.820312 20.503906 0.226562 16.015625 -2.96875 C 11.523438 -6.175781 8.132812 -10.726562 5.84375 -16.625 C 3.5625 -22.519531 2.414062 -29.539062 2.40625 -37.6875 C 2.394531 -45.65625 3.523438 -52.59375 5.796875 -58.5 C 8.078125 -64.40625 11.460938 -68.992188 15.953125 -72.265625 C 20.441406 -75.546875 25.960938 -77.191406 32.515625 -77.203125 C 39.109375 -77.203125 44.640625 -75.609375 49.109375 -72.421875 C 53.578125 -69.242188 56.953125 -64.703125 59.234375 -58.796875 C 61.523438 -52.898438 62.675781 -45.878906 62.6875 -37.734375 Z M 44.4375 -37.71875 C 44.425781 -46.988281 43.492188 -53.722656 41.640625 -57.921875 C 39.796875 -62.117188 36.753906 -64.21875 32.515625 -64.21875 C 28.285156 -64.207031 25.25 -62.09375 23.40625 -57.875 C 21.5625 -53.65625 20.644531 -46.929688 20.65625 -37.703125 C 20.664062 -28.429688 21.613281 -21.695312 23.5 -17.5 C 25.382812 -13.300781 28.40625 -11.207031 32.5625 -11.21875 C 36.90625 -11.21875 39.972656 -13.34375 41.765625 -17.59375 C 43.554688 -21.851562 44.445312 -28.5625 44.4375 -37.71875 Z M 44.4375 -37.71875 "/></g></g></g><g fill="#6d6e71" fill-opacity="0.502"><g transform="translate(377.022775, 372.138106)"><g><path d="M 38.8125 -77.203125 C 44.207031 -77.210938 48.796875 -76.5 52.578125 -75.0625 C 56.367188 -73.632812 59.835938 -71.617188 62.984375 -69.015625 L 54.25 -58.484375 C 52.1875 -60.179688 49.90625 -61.523438 47.40625 -62.515625 C 44.914062 -63.503906 42.203125 -64 39.265625 -64 C 36.117188 -64 33.238281 -63.097656 30.625 -61.296875 C 28.019531 -59.503906 25.941406 -56.679688 24.390625 -52.828125 C 22.835938 -48.972656 22.066406 -43.96875 22.078125 -37.8125 C 22.078125 -31.769531 22.828125 -26.835938 24.328125 -23.015625 C 25.835938 -19.191406 27.910156 -16.382812 30.546875 -14.59375 C 33.191406 -12.8125 36.21875 -11.921875 39.625 -11.921875 C 43.394531 -11.921875 46.523438 -12.628906 49.015625 -14.046875 C 51.515625 -15.460938 53.816406 -17.003906 55.921875 -18.671875 L 64.03125 -8.375 C 61.207031 -5.570312 57.726562 -3.175781 53.59375 -1.1875 C 49.46875 0.800781 44.492188 1.800781 38.671875 1.8125 C 31.859375 1.8125 25.816406 0.304688 20.546875 -2.703125 C 15.285156 -5.722656 11.15625 -10.171875 8.15625 -16.046875 C 5.164062 -21.929688 3.664062 -29.179688 3.65625 -37.796875 C 3.644531 -46.191406 5.1875 -53.320312 8.28125 -59.1875 C 11.375 -65.0625 15.578125 -69.53125 20.890625 -72.59375 C 26.210938 -75.664062 32.1875 -77.203125 38.8125 -77.203125 Z M 38.8125 -77.203125 "/></g></g></g><g fill="#6d6e71" fill-opacity="0.502"><g transform="translate(442.184961, 372.082353)"><g><path d="M 43.421875 -16.265625 L 21.375 -16.25 L 17.4375 -0.015625 L -1.1875 0 L 21.765625 -75.28125 L 43.375 -75.296875 L 66.46875 -0.0625 L 47.40625 -0.046875 Z M 24.1875 -29.171875 L 40.484375 -29.1875 L 32.3125 -62.484375 Z M 24.1875 -29.171875 "/></g></g></g><g fill="#6d6e71" fill-opacity="0.502"><g transform="translate(507.347148, 372.0266)"><g><path d="M 10.09375 -0.015625 L 10.03125 -75.28125 L 27.84375 -75.296875 L 27.890625 -14.09375 L 60.53125 -14.109375 L 58.703125 -0.046875 Z M 10.09375 -0.015625 "/></g></g></g><g fill="#478cbf" fill-opacity="1"><g transform="translate(241.893999, 367.453422)"><g><path d="M 10.09375 -0.015625 L 10.03125 -75.28125 L 27.84375 -75.296875 L 27.890625 -14.09375 L 60.53125 -14.109375 L 58.703125 -0.046875 Z M 10.09375 -0.015625 "/></g></g></g><g fill="#478cbf" fill-opacity="1"><g transform="translate(307.056185, 367.397668)"><g><path d="M 62.6875 -37.734375 C 62.695312 -29.765625 61.5625 -22.820312 59.28125 -16.90625 C 57.007812 -10.988281 53.640625 -6.390625 49.171875 -3.109375 C 44.703125 0.171875 39.171875 1.8125 32.578125 1.8125 C 26.023438 1.820312 20.503906 0.226562 16.015625 -2.96875 C 11.523438 -6.175781 8.132812 -10.726562 5.84375 -16.625 C 3.5625 -22.519531 2.414062 -29.539062 2.40625 -37.6875 C 2.394531 -45.65625 3.523438 -52.59375 5.796875 -58.5 C 8.078125 -64.40625 11.460938 -68.992188 15.953125 -72.265625 C 20.441406 -75.546875 25.960938 -77.191406 32.515625 -77.203125 C 39.109375 -77.203125 44.640625 -75.609375 49.109375 -72.421875 C 53.578125 -69.242188 56.953125 -64.703125 59.234375 -58.796875 C 61.523438 -52.898438 62.675781 -45.878906 62.6875 -37.734375 Z M 44.4375 -37.71875 C 44.425781 -46.988281 43.492188 -53.722656 41.640625 -57.921875 C 39.796875 -62.117188 36.753906 -64.21875 32.515625 -64.21875 C 28.285156 -64.207031 25.25 -62.09375 23.40625 -57.875 C 21.5625 -53.65625 20.644531 -46.929688 20.65625 -37.703125 C 20.664062 -28.429688 21.613281 -21.695312 23.5 -17.5 C 25.382812 -13.300781 28.40625 -11.207031 32.5625 -11.21875 C 36.90625 -11.21875 39.972656 -13.34375 41.765625 -17.59375 C 43.554688 -21.851562 44.445312 -28.5625 44.4375 -37.71875 Z M 44.4375 -37.71875 "/></g></g></g><g fill="#478cbf" fill-opacity="1"><g transform="translate(372.218371, 367.341915)"><g><path d="M 38.8125 -77.203125 C 44.207031 -77.210938 48.796875 -76.5 52.578125 -75.0625 C 56.367188 -73.632812 59.835938 -71.617188 62.984375 -69.015625 L 54.25 -58.484375 C 52.1875 -60.179688 49.90625 -61.523438 47.40625 -62.515625 C 44.914062 -63.503906 42.203125 -64 39.265625 -64 C 36.117188 -64 33.238281 -63.097656 30.625 -61.296875 C 28.019531 -59.503906 25.941406 -56.679688 24.390625 -52.828125 C 22.835938 -48.972656 22.066406 -43.96875 22.078125 -37.8125 C 22.078125 -31.769531 22.828125 -26.835938 24.328125 -23.015625 C 25.835938 -19.191406 27.910156 -16.382812 30.546875 -14.59375 C 33.191406 -12.8125 36.21875 -11.921875 39.625 -11.921875 C 43.394531 -11.921875 46.523438 -12.628906 49.015625 -14.046875 C 51.515625 -15.460938 53.816406 -17.003906 55.921875 -18.671875 L 64.03125 -8.375 C 61.207031 -5.570312 57.726562 -3.175781 53.59375 -1.1875 C 49.46875 0.800781 44.492188 1.800781 38.671875 1.8125 C 31.859375 1.8125 25.816406 0.304688 20.546875 -2.703125 C 15.285156 -5.722656 11.15625 -10.171875 8.15625 -16.046875 C 5.164062 -21.929688 3.664062 -29.179688 3.65625 -37.796875 C 3.644531 -46.191406 5.1875 -53.320312 8.28125 -59.1875 C 11.375 -65.0625 15.578125 -69.53125 20.890625 -72.59375 C 26.210938 -75.664062 32.1875 -77.203125 38.8125 -77.203125 Z M 38.8125 -77.203125 "/></g></g></g><g fill="#478cbf" fill-opacity="1"><g transform="translate(437.380558, 367.286162)"><g><path d="M 43.421875 -16.265625 L 21.375 -16.25 L 17.4375 -0.015625 L -1.1875 0 L 21.765625 -75.28125 L 43.375 -75.296875 L 66.46875 -0.0625 L 47.40625 -0.046875 Z M 24.1875 -29.171875 L 40.484375 -29.1875 L 32.3125 -62.484375 Z M 24.1875 -29.171875 "/></g></g></g><g fill="#478cbf" fill-opacity="1"><g transform="translate(502.542744, 367.230409)"><g><path d="M 10.09375 -0.015625 L 10.03125 -75.28125 L 27.84375 -75.296875 L 27.890625 -14.09375 L 60.53125 -14.109375 L 58.703125 -0.046875 Z M 10.09375 -0.015625 "/></g></g></g><g fill="#6d6e71" fill-opacity="0.502"><g transform="translate(181.671533, 523.85989)"><g><path d="M 41.703125 -0.03125 L 41.671875 -31.75 L 23.421875 -31.734375 L 23.453125 -0.015625 L 5.640625 0 L 5.578125 -75.265625 L 23.390625 -75.28125 L 23.40625 -46.390625 L 41.65625 -46.40625 L 41.640625 -75.296875 L 59.453125 -75.3125 L 59.515625 -0.046875 Z M 41.703125 -0.03125 "/></g></g></g><g fill="#6d6e71" fill-opacity="0.502"><g transform="translate(246.833719, 523.804136)"><g><path d="M 56.953125 -75.3125 L 56.96875 -62.28125 L 41.4375 -62.265625 L 41.46875 -13.125 L 57 -13.140625 L 57.015625 -0.046875 L 8.140625 0 L 8.125 -13.09375 L 23.65625 -13.109375 L 23.625 -62.25 L 8.09375 -62.234375 L 8.078125 -75.265625 Z M 56.953125 -75.3125 "/></g></g></g><g fill="#6d6e71" fill-opacity="0.502"><g transform="translate(311.995906, 523.748383)"><g><path d="M 61.671875 -22.046875 C 61.671875 -17.367188 60.453125 -13.238281 58.015625 -9.65625 C 55.578125 -6.070312 52.078125 -3.265625 47.515625 -1.234375 C 42.953125 0.796875 37.46875 1.8125 31.0625 1.8125 C 23.96875 1.820312 18.019531 0.789062 13.21875 -1.28125 C 8.425781 -3.363281 4.453125 -5.941406 1.296875 -9.015625 L 10.296875 -19.015625 C 13.085938 -16.597656 16.164062 -14.726562 19.53125 -13.40625 C 22.894531 -12.082031 26.585938 -11.425781 30.609375 -11.4375 C 33.109375 -11.4375 35.296875 -11.796875 37.171875 -12.515625 C 39.054688 -13.242188 40.523438 -14.296875 41.578125 -15.671875 C 42.628906 -17.046875 43.15625 -18.710938 43.15625 -20.671875 C 43.15625 -22.515625 42.738281 -24.066406 41.90625 -25.328125 C 41.070312 -26.597656 39.664062 -27.738281 37.6875 -28.75 C 35.707031 -29.769531 32.960938 -30.804688 29.453125 -31.859375 C 23.585938 -33.648438 18.867188 -35.628906 15.296875 -37.796875 C 11.734375 -39.972656 9.144531 -42.488281 7.53125 -45.34375 C 5.914062 -48.207031 5.109375 -51.539062 5.109375 -55.34375 C 5.109375 -59.9375 6.378906 -63.863281 8.921875 -67.125 C 11.472656 -70.394531 14.898438 -72.890625 19.203125 -74.609375 C 23.515625 -76.328125 28.257812 -77.191406 33.4375 -77.203125 C 39.269531 -77.203125 44.410156 -76.359375 48.859375 -74.671875 C 53.316406 -72.992188 57.175781 -70.601562 60.4375 -67.5 L 52.03125 -57.828125 C 49.5 -59.960938 46.765625 -61.539062 43.828125 -62.5625 C 40.890625 -63.59375 37.898438 -64.109375 34.859375 -64.109375 C 32.609375 -64.109375 30.632812 -63.820312 28.9375 -63.25 C 27.25 -62.6875 25.929688 -61.863281 24.984375 -60.78125 C 24.046875 -59.695312 23.578125 -58.335938 23.578125 -56.703125 C 23.578125 -55.109375 24.03125 -53.769531 24.9375 -52.6875 C 25.84375 -51.601562 27.414062 -50.582031 29.65625 -49.625 C 31.90625 -48.675781 35.019531 -47.566406 39 -46.296875 C 43.75 -44.859375 47.816406 -43.132812 51.203125 -41.125 C 54.585938 -39.113281 57.175781 -36.585938 58.96875 -33.546875 C 60.757812 -30.503906 61.660156 -26.671875 61.671875 -22.046875 Z M 61.671875 -22.046875 "/></g></g></g><g fill="#6d6e71" fill-opacity="0.502"><g transform="translate(377.158092, 523.69263)"><g><path d="M 41.328125 -61.671875 L 41.375 -0.03125 L 23.5625 -0.015625 L 23.515625 -61.65625 L 2.390625 -61.640625 L 2.375 -75.265625 L 63.3125 -75.3125 L 61.484375 -61.6875 Z M 41.328125 -61.671875 "/></g></g></g><g fill="#6d6e71" fill-opacity="0.502"><g transform="translate(442.320278, 523.636877)"><g><path d="M 62.6875 -37.734375 C 62.695312 -29.765625 61.5625 -22.820312 59.28125 -16.90625 C 57.007812 -10.988281 53.640625 -6.390625 49.171875 -3.109375 C 44.703125 0.171875 39.171875 1.8125 32.578125 1.8125 C 26.023438 1.820312 20.503906 0.226562 16.015625 -2.96875 C 11.523438 -6.175781 8.132812 -10.726562 5.84375 -16.625 C 3.5625 -22.519531 2.414062 -29.539062 2.40625 -37.6875 C 2.394531 -45.65625 3.523438 -52.59375 5.796875 -58.5 C 8.078125 -64.40625 11.460938 -68.992188 15.953125 -72.265625 C 20.441406 -75.546875 25.960938 -77.191406 32.515625 -77.203125 C 39.109375 -77.203125 44.640625 -75.609375 49.109375 -72.421875 C 53.578125 -69.242188 56.953125 -64.703125 59.234375 -58.796875 C 61.523438 -52.898438 62.675781 -45.878906 62.6875 -37.734375 Z M 44.4375 -37.71875 C 44.425781 -46.988281 43.492188 -53.722656 41.640625 -57.921875 C 39.796875 -62.117188 36.753906 -64.21875 32.515625 -64.21875 C 28.285156 -64.207031 25.25 -62.09375 23.40625 -57.875 C 21.5625 -53.65625 20.644531 -46.929688 20.65625 -37.703125 C 20.664062 -28.429688 21.613281 -21.695312 23.5 -17.5 C 25.382812 -13.300781 28.40625 -11.207031 32.5625 -11.21875 C 36.90625 -11.21875 39.972656 -13.34375 41.765625 -17.59375 C 43.554688 -21.851562 44.445312 -28.5625 44.4375 -37.71875 Z M 44.4375 -37.71875 "/></g></g></g><g fill="#6d6e71" fill-opacity="0.502"><g transform="translate(507.482464, 523.581123)"><g><path d="M 60.9375 -52.453125 C 60.9375 -48.867188 60.269531 -45.734375 58.9375 -43.046875 C 57.601562 -40.367188 55.796875 -38.109375 53.515625 -36.265625 C 51.234375 -34.421875 48.679688 -32.9375 45.859375 -31.8125 L 65.59375 -0.0625 L 45.453125 -0.03125 L 29.125 -28.8125 L 24.078125 -28.796875 L 24.109375 -0.015625 L 6.296875 0 L 6.234375 -75.265625 L 29.90625 -75.296875 C 40.15625 -75.296875 47.882812 -73.429688 53.09375 -69.703125 C 58.3125 -65.984375 60.925781 -60.234375 60.9375 -52.453125 Z M 42.578125 -52.4375 C 42.578125 -56.050781 41.519531 -58.679688 39.40625 -60.328125 C 37.289062 -61.984375 34.148438 -62.8125 29.984375 -62.8125 L 24.0625 -62.796875 L 24.078125 -41.015625 L 30.703125 -41.03125 C 34.578125 -41.03125 37.523438 -41.9375 39.546875 -43.75 C 41.566406 -45.5625 42.578125 -48.457031 42.578125 -52.4375 Z M 42.578125 -52.4375 "/></g></g></g><g fill="#6d6e71" fill-opacity="0.502"><g transform="translate(572.644651, 523.52537)"><g><path d="M 41.453125 -28.265625 L 41.484375 -0.03125 L 23.671875 -0.015625 L 23.640625 -28.140625 L -0.9375 -75.265625 L 18.5625 -75.28125 L 32.875 -42.875 L 47.234375 -75.3125 L 65.96875 -75.328125 Z M 41.453125 -28.265625 "/></g></g></g><g fill="#478cbf" fill-opacity="1"><g transform="translate(176.867129, 519.063699)"><g><path d="M 41.703125 -0.03125 L 41.671875 -31.75 L 23.421875 -31.734375 L 23.453125 -0.015625 L 5.640625 0 L 5.578125 -75.265625 L 23.390625 -75.28125 L 23.40625 -46.390625 L 41.65625 -46.40625 L 41.640625 -75.296875 L 59.453125 -75.3125 L 59.515625 -0.046875 Z M 41.703125 -0.03125 "/></g></g></g><g fill="#478cbf" fill-opacity="1"><g transform="translate(242.029316, 519.007945)"><g><path d="M 56.953125 -75.3125 L 56.96875 -62.28125 L 41.4375 -62.265625 L 41.46875 -13.125 L 57 -13.140625 L 57.015625 -0.046875 L 8.140625 0 L 8.125 -13.09375 L 23.65625 -13.109375 L 23.625 -62.25 L 8.09375 -62.234375 L 8.078125 -75.265625 Z M 56.953125 -75.3125 "/></g></g></g><g fill="#478cbf" fill-opacity="1"><g transform="translate(307.191502, 518.952192)"><g><path d="M 61.671875 -22.046875 C 61.671875 -17.367188 60.453125 -13.238281 58.015625 -9.65625 C 55.578125 -6.070312 52.078125 -3.265625 47.515625 -1.234375 C 42.953125 0.796875 37.46875 1.8125 31.0625 1.8125 C 23.96875 1.820312 18.019531 0.789062 13.21875 -1.28125 C 8.425781 -3.363281 4.453125 -5.941406 1.296875 -9.015625 L 10.296875 -19.015625 C 13.085938 -16.597656 16.164062 -14.726562 19.53125 -13.40625 C 22.894531 -12.082031 26.585938 -11.425781 30.609375 -11.4375 C 33.109375 -11.4375 35.296875 -11.796875 37.171875 -12.515625 C 39.054688 -13.242188 40.523438 -14.296875 41.578125 -15.671875 C 42.628906 -17.046875 43.15625 -18.710938 43.15625 -20.671875 C 43.15625 -22.515625 42.738281 -24.066406 41.90625 -25.328125 C 41.070312 -26.597656 39.664062 -27.738281 37.6875 -28.75 C 35.707031 -29.769531 32.960938 -30.804688 29.453125 -31.859375 C 23.585938 -33.648438 18.867188 -35.628906 15.296875 -37.796875 C 11.734375 -39.972656 9.144531 -42.488281 7.53125 -45.34375 C 5.914062 -48.207031 5.109375 -51.539062 5.109375 -55.34375 C 5.109375 -59.9375 6.378906 -63.863281 8.921875 -67.125 C 11.472656 -70.394531 14.898438 -72.890625 19.203125 -74.609375 C 23.515625 -76.328125 28.257812 -77.191406 33.4375 -77.203125 C 39.269531 -77.203125 44.410156 -76.359375 48.859375 -74.671875 C 53.316406 -72.992188 57.175781 -70.601562 60.4375 -67.5 L 52.03125 -57.828125 C 49.5 -59.960938 46.765625 -61.539062 43.828125 -62.5625 C 40.890625 -63.59375 37.898438 -64.109375 34.859375 -64.109375 C 32.609375 -64.109375 30.632812 -63.820312 28.9375 -63.25 C 27.25 -62.6875 25.929688 -61.863281 24.984375 -60.78125 C 24.046875 -59.695312 23.578125 -58.335938 23.578125 -56.703125 C 23.578125 -55.109375 24.03125 -53.769531 24.9375 -52.6875 C 25.84375 -51.601562 27.414062 -50.582031 29.65625 -49.625 C 31.90625 -48.675781 35.019531 -47.566406 39 -46.296875 C 43.75 -44.859375 47.816406 -43.132812 51.203125 -41.125 C 54.585938 -39.113281 57.175781 -36.585938 58.96875 -33.546875 C 60.757812 -30.503906 61.660156 -26.671875 61.671875 -22.046875 Z M 61.671875 -22.046875 "/></g></g></g><g fill="#478cbf" fill-opacity="1"><g transform="translate(372.353688, 518.896439)"><g><path d="M 41.328125 -61.671875 L 41.375 -0.03125 L 23.5625 -0.015625 L 23.515625 -61.65625 L 2.390625 -61.640625 L 2.375 -75.265625 L 63.3125 -75.3125 L 61.484375 -61.6875 Z M 41.328125 -61.671875 "/></g></g></g><g fill="#478cbf" fill-opacity="1"><g transform="translate(437.515875, 518.840686)"><g><path d="M 62.6875 -37.734375 C 62.695312 -29.765625 61.5625 -22.820312 59.28125 -16.90625 C 57.007812 -10.988281 53.640625 -6.390625 49.171875 -3.109375 C 44.703125 0.171875 39.171875 1.8125 32.578125 1.8125 C 26.023438 1.820312 20.503906 0.226562 16.015625 -2.96875 C 11.523438 -6.175781 8.132812 -10.726562 5.84375 -16.625 C 3.5625 -22.519531 2.414062 -29.539062 2.40625 -37.6875 C 2.394531 -45.65625 3.523438 -52.59375 5.796875 -58.5 C 8.078125 -64.40625 11.460938 -68.992188 15.953125 -72.265625 C 20.441406 -75.546875 25.960938 -77.191406 32.515625 -77.203125 C 39.109375 -77.203125 44.640625 -75.609375 49.109375 -72.421875 C 53.578125 -69.242188 56.953125 -64.703125 59.234375 -58.796875 C 61.523438 -52.898438 62.675781 -45.878906 62.6875 -37.734375 Z M 44.4375 -37.71875 C 44.425781 -46.988281 43.492188 -53.722656 41.640625 -57.921875 C 39.796875 -62.117188 36.753906 -64.21875 32.515625 -64.21875 C 28.285156 -64.207031 25.25 -62.09375 23.40625 -57.875 C 21.5625 -53.65625 20.644531 -46.929688 20.65625 -37.703125 C 20.664062 -28.429688 21.613281 -21.695312 23.5 -17.5 C 25.382812 -13.300781 28.40625 -11.207031 32.5625 -11.21875 C 36.90625 -11.21875 39.972656 -13.34375 41.765625 -17.59375 C 43.554688 -21.851562 44.445312 -28.5625 44.4375 -37.71875 Z M 44.4375 -37.71875 "/></g></g></g><g fill="#478cbf" fill-opacity="1"><g transform="translate(502.678061, 518.784932)"><g><path d="M 60.9375 -52.453125 C 60.9375 -48.867188 60.269531 -45.734375 58.9375 -43.046875 C 57.601562 -40.367188 55.796875 -38.109375 53.515625 -36.265625 C 51.234375 -34.421875 48.679688 -32.9375 45.859375 -31.8125 L 65.59375 -0.0625 L 45.453125 -0.03125 L 29.125 -28.8125 L 24.078125 -28.796875 L 24.109375 -0.015625 L 6.296875 0 L 6.234375 -75.265625 L 29.90625 -75.296875 C 40.15625 -75.296875 47.882812 -73.429688 53.09375 -69.703125 C 58.3125 -65.984375 60.925781 -60.234375 60.9375 -52.453125 Z M 42.578125 -52.4375 C 42.578125 -56.050781 41.519531 -58.679688 39.40625 -60.328125 C 37.289062 -61.984375 34.148438 -62.8125 29.984375 -62.8125 L 24.0625 -62.796875 L 24.078125 -41.015625 L 30.703125 -41.03125 C 34.578125 -41.03125 37.523438 -41.9375 39.546875 -43.75 C 41.566406 -45.5625 42.578125 -48.457031 42.578125 -52.4375 Z M 42.578125 -52.4375 "/></g></g></g><g fill="#478cbf" fill-opacity="1"><g transform="translate(567.840247, 518.729179)"><g><path d="M 41.453125 -28.265625 L 41.484375 -0.03125 L 23.671875 -0.015625 L 23.640625 -28.140625 L -0.9375 -75.265625 L 18.5625 -75.28125 L 32.875 -42.875 L 47.234375 -75.3125 L 65.96875 -75.328125 Z M 41.453125 -28.265625 "/></g></g></g><g fill="#414042" fill-opacity="1"><g transform="translate(112.222123, 301.611272)"><g><path d="M 18.09375 -29.75 L 18.09375 -0.859375 L 11.484375 -0.859375 L 11.484375 -23.078125 L 5.359375 -19.25 L 2.484375 -23.90625 L 12.078125 -29.75 Z M 23.65625 -5.125 L 23.65625 0 L 4.3125 0 L 4.3125 -5.125 Z M 23.65625 -5.125 "/></g></g></g><g fill="#414042" fill-opacity="1"><g transform="translate(112.222123, 361.511934)"><g><path d="M 11.84375 -30.5 C 14.101562 -30.5 15.992188 -30.101562 17.515625 -29.3125 C 19.046875 -28.53125 20.191406 -27.488281 20.953125 -26.1875 C 21.722656 -24.894531 22.109375 -23.488281 22.109375 -21.96875 C 22.109375 -20.769531 21.898438 -19.59375 21.484375 -18.4375 C 21.078125 -17.289062 20.410156 -16.078125 19.484375 -14.796875 C 18.554688 -13.515625 17.320312 -12.09375 15.78125 -10.53125 C 14.25 -8.976562 12.351562 -7.191406 10.09375 -5.171875 L 22.796875 -5.171875 L 22.0625 0 L 2.296875 0 L 2.296875 -4.8125 C 4.253906 -6.695312 5.957031 -8.367188 7.40625 -9.828125 C 8.851562 -11.285156 10.070312 -12.578125 11.0625 -13.703125 C 12.0625 -14.835938 12.863281 -15.847656 13.46875 -16.734375 C 14.070312 -17.617188 14.507812 -18.4375 14.78125 -19.1875 C 15.050781 -19.945312 15.1875 -20.675781 15.1875 -21.375 C 15.1875 -22.570312 14.835938 -23.519531 14.140625 -24.21875 C 13.453125 -24.925781 12.472656 -25.28125 11.203125 -25.28125 C 10.066406 -25.28125 9.082031 -25.039062 8.25 -24.5625 C 7.425781 -24.09375 6.628906 -23.332031 5.859375 -22.28125 L 1.703125 -25.40625 C 2.816406 -26.957031 4.1875 -28.191406 5.8125 -29.109375 C 7.445312 -30.035156 9.457031 -30.5 11.84375 -30.5 Z M 11.84375 -30.5 "/></g></g></g><g fill="#414042" fill-opacity="1"><g transform="translate(112.222123, 421.412597)"><g><path d="M 11.671875 -30.5 C 13.816406 -30.5 15.644531 -30.148438 17.15625 -29.453125 C 18.664062 -28.765625 19.816406 -27.84375 20.609375 -26.6875 C 21.398438 -25.53125 21.796875 -24.257812 21.796875 -22.875 C 21.796875 -21.613281 21.546875 -20.515625 21.046875 -19.578125 C 20.546875 -18.640625 19.84375 -17.851562 18.9375 -17.21875 C 18.03125 -16.59375 16.960938 -16.101562 15.734375 -15.75 C 17.109375 -15.5625 18.320312 -15.191406 19.375 -14.640625 C 20.425781 -14.097656 21.25 -13.316406 21.84375 -12.296875 C 22.445312 -11.273438 22.75 -9.96875 22.75 -8.375 C 22.75 -6.695312 22.285156 -5.171875 21.359375 -3.796875 C 20.441406 -2.421875 19.125 -1.320312 17.40625 -0.5 C 15.6875 0.320312 13.632812 0.734375 11.25 0.734375 C 9.03125 0.734375 7.039062 0.34375 5.28125 -0.4375 C 3.519531 -1.21875 2.015625 -2.316406 0.765625 -3.734375 L 4.59375 -7.296875 C 5.445312 -6.304688 6.398438 -5.585938 7.453125 -5.140625 C 8.503906 -4.691406 9.617188 -4.46875 10.796875 -4.46875 C 12.265625 -4.46875 13.460938 -4.84375 14.390625 -5.59375 C 15.328125 -6.34375 15.796875 -7.425781 15.796875 -8.84375 C 15.796875 -9.90625 15.597656 -10.757812 15.203125 -11.40625 C 14.804688 -12.0625 14.234375 -12.535156 13.484375 -12.828125 C 12.734375 -13.128906 11.820312 -13.28125 10.75 -13.28125 L 8.046875 -13.28125 L 8.828125 -17.96875 L 10.75 -17.96875 C 11.625 -17.96875 12.394531 -18.109375 13.0625 -18.390625 C 13.738281 -18.679688 14.269531 -19.113281 14.65625 -19.6875 C 15.039062 -20.269531 15.234375 -20.988281 15.234375 -21.84375 C 15.234375 -22.957031 14.832031 -23.835938 14.03125 -24.484375 C 13.226562 -25.128906 12.191406 -25.453125 10.921875 -25.453125 C 9.734375 -25.453125 8.65625 -25.222656 7.6875 -24.765625 C 6.726562 -24.304688 5.828125 -23.675781 4.984375 -22.875 L 1.5 -26.484375 C 2.863281 -27.796875 4.390625 -28.789062 6.078125 -29.46875 C 7.765625 -30.15625 9.628906 -30.5 11.671875 -30.5 Z M 11.671875 -30.5 "/></g></g></g><g fill="#414042" fill-opacity="1"><g transform="translate(112.222123, 481.313259)"><g><path d="M 10.171875 -30.5 L 15.953125 -28.375 L 8.90625 -11.328125 L 23.75 -11.328125 L 23.75 -6.25 L 1.90625 -6.25 L 1.90625 -10.75 Z M 20.78125 -18.5 L 20.78125 0 L 14.265625 0 L 14.1875 -10.640625 L 15.046875 -18.5 Z M 20.78125 -18.5 "/></g></g></g><g fill="#414042" fill-opacity="1"><g transform="translate(112.222123, 541.213921)"><g><path d="M 22.109375 -29.75 L 21.359375 -24.890625 L 10.46875 -24.890625 L 10.46875 -18.484375 C 11.195312 -18.828125 11.945312 -19.066406 12.71875 -19.203125 C 13.5 -19.347656 14.21875 -19.421875 14.875 -19.421875 C 16.40625 -19.421875 17.800781 -19.035156 19.0625 -18.265625 C 20.332031 -17.492188 21.34375 -16.382812 22.09375 -14.9375 C 22.84375 -13.488281 23.21875 -11.765625 23.21875 -9.765625 C 23.21875 -7.765625 22.726562 -5.96875 21.75 -4.375 C 20.769531 -2.789062 19.40625 -1.539062 17.65625 -0.625 C 15.914062 0.28125 13.878906 0.734375 11.546875 0.734375 C 9.390625 0.734375 7.476562 0.328125 5.8125 -0.484375 C 4.15625 -1.296875 2.773438 -2.375 1.671875 -3.71875 L 5.578125 -7.28125 C 6.296875 -6.363281 7.125 -5.664062 8.0625 -5.1875 C 9 -4.707031 9.984375 -4.46875 11.015625 -4.46875 C 12.585938 -4.46875 13.847656 -4.945312 14.796875 -5.90625 C 15.742188 -6.863281 16.21875 -8.113281 16.21875 -9.65625 C 16.21875 -10.882812 16.050781 -11.867188 15.71875 -12.609375 C 15.382812 -13.359375 14.914062 -13.898438 14.3125 -14.234375 C 13.707031 -14.578125 13.007812 -14.75 12.21875 -14.75 C 11.664062 -14.75 11.082031 -14.675781 10.46875 -14.53125 C 9.851562 -14.382812 9.21875 -14.125 8.5625 -13.75 L 3.984375 -13.75 L 3.984375 -29.75 Z M 22.109375 -29.75 "/></g></g></g><g fill="#414042" fill-opacity="1"><g transform="translate(194.275416, 195.569073)"><g><path d="M 24.375 -8.6875 C 24.375 -6.84375 23.890625 -5.210938 22.921875 -3.796875 C 21.960938 -2.378906 20.582031 -1.269531 18.78125 -0.46875 C 16.976562 0.332031 14.8125 0.734375 12.28125 0.734375 C 9.46875 0.734375 7.113281 0.320312 5.21875 -0.5 C 3.320312 -1.320312 1.753906 -2.34375 0.515625 -3.5625 L 4.078125 -7.515625 C 5.179688 -6.554688 6.394531 -5.8125 7.71875 -5.28125 C 9.050781 -4.757812 10.515625 -4.5 12.109375 -4.5 C 13.085938 -4.5 13.945312 -4.640625 14.6875 -4.921875 C 15.4375 -5.210938 16.019531 -5.628906 16.4375 -6.171875 C 16.851562 -6.722656 17.0625 -7.382812 17.0625 -8.15625 C 17.0625 -8.882812 16.894531 -9.5 16.5625 -10 C 16.238281 -10.5 15.6875 -10.945312 14.90625 -11.34375 C 14.125 -11.75 13.039062 -12.160156 11.65625 -12.578125 C 9.332031 -13.296875 7.46875 -14.082031 6.0625 -14.9375 C 4.65625 -15.789062 3.628906 -16.78125 2.984375 -17.90625 C 2.347656 -19.039062 2.03125 -20.363281 2.03125 -21.875 C 2.03125 -23.6875 2.535156 -25.234375 3.546875 -26.515625 C 4.554688 -27.804688 5.910156 -28.789062 7.609375 -29.46875 C 9.316406 -30.15625 11.191406 -30.5 13.234375 -30.5 C 15.546875 -30.5 17.578125 -30.164062 19.328125 -29.5 C 21.085938 -28.832031 22.613281 -27.882812 23.90625 -26.65625 L 20.578125 -22.828125 C 19.578125 -23.671875 18.5 -24.296875 17.34375 -24.703125 C 16.1875 -25.117188 15.003906 -25.328125 13.796875 -25.328125 C 12.910156 -25.328125 12.128906 -25.210938 11.453125 -24.984375 C 10.785156 -24.765625 10.265625 -24.441406 9.890625 -24.015625 C 9.515625 -23.585938 9.328125 -23.050781 9.328125 -22.40625 C 9.328125 -21.78125 9.503906 -21.25 9.859375 -20.8125 C 10.222656 -20.382812 10.847656 -19.976562 11.734375 -19.59375 C 12.617188 -19.21875 13.851562 -18.78125 15.4375 -18.28125 C 17.300781 -17.707031 18.898438 -17.023438 20.234375 -16.234375 C 21.578125 -15.441406 22.601562 -14.441406 23.3125 -13.234375 C 24.019531 -12.035156 24.375 -10.519531 24.375 -8.6875 Z M 24.375 -8.6875 "/></g></g></g><g fill="#414042" fill-opacity="1"><g transform="translate(220.02899, 195.569073)"><g><path d="M 15.09375 -4.609375 C 16.019531 -4.609375 16.894531 -4.789062 17.71875 -5.15625 C 18.539062 -5.519531 19.359375 -5.988281 20.171875 -6.5625 L 23.203125 -2.28125 C 22.203125 -1.414062 20.984375 -0.695312 19.546875 -0.125 C 18.109375 0.445312 16.5 0.734375 14.71875 0.734375 C 12.269531 0.734375 10.164062 0.226562 8.40625 -0.78125 C 6.644531 -1.789062 5.289062 -3.191406 4.34375 -4.984375 C 3.40625 -6.785156 2.9375 -8.875 2.9375 -11.25 C 2.9375 -13.625 3.421875 -15.734375 4.390625 -17.578125 C 5.359375 -19.429688 6.734375 -20.890625 8.515625 -21.953125 C 10.296875 -23.015625 12.40625 -23.546875 14.84375 -23.546875 C 16.582031 -23.546875 18.125 -23.304688 19.46875 -22.828125 C 20.820312 -22.347656 22.066406 -21.632812 23.203125 -20.6875 L 20.265625 -16.609375 C 19.484375 -17.148438 18.664062 -17.570312 17.8125 -17.875 C 16.957031 -18.175781 16.0625 -18.328125 15.125 -18.328125 C 13.59375 -18.328125 12.359375 -17.785156 11.421875 -16.703125 C 10.484375 -15.628906 10.015625 -13.8125 10.015625 -11.25 C 10.015625 -9.570312 10.238281 -8.25 10.6875 -7.28125 C 11.132812 -6.320312 11.738281 -5.632812 12.5 -5.21875 C 13.269531 -4.8125 14.132812 -4.609375 15.09375 -4.609375 Z M 15.09375 -4.609375 "/></g></g></g><g fill="#414042" fill-opacity="1"><g transform="translate(245.782565, 195.569073)"><g><path d="M 3.21875 0 L 3.21875 -4.546875 L 6.21875 -4.546875 L 6.21875 -18.28125 L 3.21875 -18.28125 L 3.21875 -22.796875 L 11.390625 -22.796875 L 12.640625 -17.65625 C 13.453125 -19.625 14.488281 -21.085938 15.75 -22.046875 C 17.019531 -23.003906 18.570312 -23.484375 20.40625 -23.484375 C 21.175781 -23.484375 21.863281 -23.421875 22.46875 -23.296875 C 23.070312 -23.171875 23.640625 -23.003906 24.171875 -22.796875 L 22.109375 -17.1875 C 21.691406 -17.300781 21.273438 -17.382812 20.859375 -17.4375 C 20.441406 -17.5 19.984375 -17.53125 19.484375 -17.53125 C 17.992188 -17.53125 16.6875 -16.921875 15.5625 -15.703125 C 14.445312 -14.492188 13.59375 -12.953125 13 -11.078125 L 13 -4.546875 L 17.515625 -4.546875 L 17.515625 0 Z M 18.65625 -13.265625 L 18.65625 -19.921875 L 19.65625 -22.796875 L 24.171875 -22.796875 L 22.90625 -13.265625 Z M 18.65625 -13.265625 "/></g></g></g><g fill="#414042" fill-opacity="1"><g transform="translate(271.536139, 195.569073)"><g><path d="M 16.9375 -22.796875 L 16.9375 -4.640625 L 22.734375 -4.640625 L 22.734375 0 L 3.6875 0 L 3.6875 -4.640625 L 10.15625 -4.640625 L 10.15625 -18.15625 L 3.90625 -18.15625 L 3.90625 -22.796875 Z M 12.828125 -34.71875 C 14.003906 -34.71875 14.960938 -34.351562 15.703125 -33.625 C 16.453125 -32.894531 16.828125 -31.988281 16.828125 -30.90625 C 16.828125 -29.8125 16.453125 -28.894531 15.703125 -28.15625 C 14.960938 -27.425781 14.003906 -27.0625 12.828125 -27.0625 C 11.640625 -27.0625 10.671875 -27.425781 9.921875 -28.15625 C 9.171875 -28.894531 8.796875 -29.8125 8.796875 -30.90625 C 8.796875 -31.988281 9.171875 -32.894531 9.921875 -33.625 C 10.671875 -34.351562 11.640625 -34.71875 12.828125 -34.71875 Z M 12.828125 -34.71875 "/></g></g></g><g fill="#414042" fill-opacity="1"><g transform="translate(297.289713, 195.569073)"><g><path d="M 15.625 -23.546875 C 17.613281 -23.546875 19.210938 -23.050781 20.421875 -22.0625 C 21.640625 -21.070312 22.53125 -19.675781 23.09375 -17.875 C 23.664062 -16.070312 23.953125 -13.929688 23.953125 -11.453125 C 23.953125 -9.109375 23.609375 -7.015625 22.921875 -5.171875 C 22.234375 -3.335938 21.238281 -1.894531 19.9375 -0.84375 C 18.632812 0.207031 17.050781 0.734375 15.1875 0.734375 C 12.976562 0.734375 11.175781 -0.0625 9.78125 -1.65625 L 9.78125 8.796875 L 3 9.5 L 3 -22.796875 L 9.015625 -22.796875 L 9.3125 -20.234375 C 10.238281 -21.421875 11.253906 -22.269531 12.359375 -22.78125 C 13.460938 -23.289062 14.550781 -23.546875 15.625 -23.546875 Z M 13.515625 -18.546875 C 12.734375 -18.546875 12.039062 -18.304688 11.4375 -17.828125 C 10.832031 -17.359375 10.28125 -16.71875 9.78125 -15.90625 L 9.78125 -6.28125 C 10.257812 -5.582031 10.757812 -5.066406 11.28125 -4.734375 C 11.800781 -4.410156 12.421875 -4.25 13.140625 -4.25 C 14.335938 -4.25 15.269531 -4.796875 15.9375 -5.890625 C 16.613281 -6.984375 16.953125 -8.8125 16.953125 -11.375 C 16.953125 -13.257812 16.816406 -14.71875 16.546875 -15.75 C 16.273438 -16.789062 15.878906 -17.515625 15.359375 -17.921875 C 14.847656 -18.335938 14.234375 -18.546875 13.515625 -18.546875 Z M 13.515625 -18.546875 "/></g></g></g><g fill="#414042" fill-opacity="1"><g transform="translate(323.043288, 195.569073)"><g><path d="M 23.515625 -1.328125 C 22.628906 -0.753906 21.554688 -0.269531 20.296875 0.125 C 19.035156 0.53125 17.617188 0.734375 16.046875 0.734375 C 13.078125 0.734375 10.867188 -0.0234375 9.421875 -1.546875 C 7.972656 -3.078125 7.25 -5.148438 7.25 -7.765625 L 7.25 -18.109375 L 2.46875 -18.109375 L 2.46875 -22.796875 L 7.25 -22.796875 L 7.25 -27.734375 L 14.03125 -28.546875 L 14.03125 -22.796875 L 21.375 -22.796875 L 20.703125 -18.109375 L 14.03125 -18.109375 L 14.03125 -7.765625 C 14.03125 -6.640625 14.285156 -5.832031 14.796875 -5.34375 C 15.316406 -4.851562 16.144531 -4.609375 17.28125 -4.609375 C 18.082031 -4.609375 18.8125 -4.703125 19.46875 -4.890625 C 20.132812 -5.085938 20.734375 -5.335938 21.265625 -5.640625 Z M 23.515625 -1.328125 "/></g></g></g><g fill="#414042" fill-opacity="1"><g transform="translate(348.796862, 195.569073)"><g/></g></g><g fill="#414042" fill-opacity="1"><g transform="translate(374.550436, 195.569073)"><g><path d="M 11.03125 -24.71875 L 11.03125 -17.578125 L 21.328125 -17.578125 L 21.328125 -12.640625 L 11.03125 -12.640625 L 11.03125 -5.046875 L 23.453125 -5.046875 L 23.453125 0 L 3.984375 0 L 3.984375 -29.75 L 23.4375 -29.75 L 22.734375 -24.71875 Z M 11.03125 -24.71875 "/></g></g></g><g fill="#414042" fill-opacity="1"><g transform="translate(400.304011, 195.569073)"><g><path d="M 15.96875 -32.5625 L 22.75 -31.84375 L 22.75 0 L 16.734375 0 L 16.390625 -2.515625 C 15.765625 -1.628906 14.925781 -0.863281 13.875 -0.21875 C 12.832031 0.414062 11.570312 0.734375 10.09375 0.734375 C 8.195312 0.734375 6.628906 0.226562 5.390625 -0.78125 C 4.160156 -1.800781 3.238281 -3.222656 2.625 -5.046875 C 2.019531 -6.878906 1.71875 -9.015625 1.71875 -11.453125 C 1.71875 -13.804688 2.082031 -15.890625 2.8125 -17.703125 C 3.539062 -19.523438 4.582031 -20.953125 5.9375 -21.984375 C 7.300781 -23.023438 8.921875 -23.546875 10.796875 -23.546875 C 11.804688 -23.546875 12.75 -23.363281 13.625 -23 C 14.5 -22.644531 15.28125 -22.125 15.96875 -21.4375 Z M 12.625 -18.578125 C 11.445312 -18.578125 10.5 -18.023438 9.78125 -16.921875 C 9.070312 -15.816406 8.71875 -13.984375 8.71875 -11.421875 C 8.71875 -9.546875 8.863281 -8.085938 9.15625 -7.046875 C 9.457031 -6.015625 9.875 -5.289062 10.40625 -4.875 C 10.9375 -4.457031 11.546875 -4.25 12.234375 -4.25 C 12.992188 -4.25 13.679688 -4.484375 14.296875 -4.953125 C 14.921875 -5.429688 15.476562 -6.078125 15.96875 -6.890625 L 15.96875 -16.71875 C 15.5 -17.300781 15 -17.753906 14.46875 -18.078125 C 13.9375 -18.410156 13.320312 -18.578125 12.625 -18.578125 Z M 12.625 -18.578125 "/></g></g></g><g fill="#414042" fill-opacity="1"><g transform="translate(426.057585, 195.569073)"><g><path d="M 16.9375 -22.796875 L 16.9375 -4.640625 L 22.734375 -4.640625 L 22.734375 0 L 3.6875 0 L 3.6875 -4.640625 L 10.15625 -4.640625 L 10.15625 -18.15625 L 3.90625 -18.15625 L 3.90625 -22.796875 Z M 12.828125 -34.71875 C 14.003906 -34.71875 14.960938 -34.351562 15.703125 -33.625 C 16.453125 -32.894531 16.828125 -31.988281 16.828125 -30.90625 C 16.828125 -29.8125 16.453125 -28.894531 15.703125 -28.15625 C 14.960938 -27.425781 14.003906 -27.0625 12.828125 -27.0625 C 11.640625 -27.0625 10.671875 -27.425781 9.921875 -28.15625 C 9.171875 -28.894531 8.796875 -29.8125 8.796875 -30.90625 C 8.796875 -31.988281 9.171875 -32.894531 9.921875 -33.625 C 10.671875 -34.351562 11.640625 -34.71875 12.828125 -34.71875 Z M 12.828125 -34.71875 "/></g></g></g><g fill="#414042" fill-opacity="1"><g transform="translate(451.811159, 195.569073)"><g><path d="M 23.515625 -1.328125 C 22.628906 -0.753906 21.554688 -0.269531 20.296875 0.125 C 19.035156 0.53125 17.617188 0.734375 16.046875 0.734375 C 13.078125 0.734375 10.867188 -0.0234375 9.421875 -1.546875 C 7.972656 -3.078125 7.25 -5.148438 7.25 -7.765625 L 7.25 -18.109375 L 2.46875 -18.109375 L 2.46875 -22.796875 L 7.25 -22.796875 L 7.25 -27.734375 L 14.03125 -28.546875 L 14.03125 -22.796875 L 21.375 -22.796875 L 20.703125 -18.109375 L 14.03125 -18.109375 L 14.03125 -7.765625 C 14.03125 -6.640625 14.285156 -5.832031 14.796875 -5.34375 C 15.316406 -4.851562 16.144531 -4.609375 17.28125 -4.609375 C 18.082031 -4.609375 18.8125 -4.703125 19.46875 -4.890625 C 20.132812 -5.085938 20.734375 -5.335938 21.265625 -5.640625 Z M 23.515625 -1.328125 "/></g></g></g><g fill="#414042" fill-opacity="1"><g transform="translate(477.564734, 195.569073)"><g><path d="M 12.875 -23.546875 C 15.21875 -23.546875 17.210938 -23.039062 18.859375 -22.03125 C 20.503906 -21.03125 21.765625 -19.625 22.640625 -17.8125 C 23.515625 -16.007812 23.953125 -13.890625 23.953125 -11.453125 C 23.953125 -8.921875 23.507812 -6.742188 22.625 -4.921875 C 21.75 -3.097656 20.488281 -1.695312 18.84375 -0.71875 C 17.195312 0.25 15.207031 0.734375 12.875 0.734375 C 10.5625 0.734375 8.578125 0.253906 6.921875 -0.703125 C 5.265625 -1.660156 3.992188 -3.046875 3.109375 -4.859375 C 2.234375 -6.679688 1.796875 -8.867188 1.796875 -11.421875 C 1.796875 -13.835938 2.234375 -15.953125 3.109375 -17.765625 C 3.992188 -19.585938 5.265625 -21.003906 6.921875 -22.015625 C 8.578125 -23.035156 10.5625 -23.546875 12.875 -23.546875 Z M 12.875 -18.546875 C 11.488281 -18.546875 10.460938 -17.972656 9.796875 -16.828125 C 9.128906 -15.691406 8.796875 -13.890625 8.796875 -11.421875 C 8.796875 -8.898438 9.128906 -7.070312 9.796875 -5.9375 C 10.460938 -4.8125 11.488281 -4.25 12.875 -4.25 C 14.257812 -4.25 15.285156 -4.8125 15.953125 -5.9375 C 16.617188 -7.070312 16.953125 -8.910156 16.953125 -11.453125 C 16.953125 -13.921875 16.617188 -15.71875 15.953125 -16.84375 C 15.285156 -17.976562 14.257812 -18.546875 12.875 -18.546875 Z M 12.875 -18.546875 "/></g></g></g><g fill="#414042" fill-opacity="1"><g transform="translate(503.318308, 195.569073)"><g><path d="M 3.21875 0 L 3.21875 -4.546875 L 6.21875 -4.546875 L 6.21875 -18.28125 L 3.21875 -18.28125 L 3.21875 -22.796875 L 11.390625 -22.796875 L 12.640625 -17.65625 C 13.453125 -19.625 14.488281 -21.085938 15.75 -22.046875 C 17.019531 -23.003906 18.570312 -23.484375 20.40625 -23.484375 C 21.175781 -23.484375 21.863281 -23.421875 22.46875 -23.296875 C 23.070312 -23.171875 23.640625 -23.003906 24.171875 -22.796875 L 22.109375 -17.1875 C 21.691406 -17.300781 21.273438 -17.382812 20.859375 -17.4375 C 20.441406 -17.5 19.984375 -17.53125 19.484375 -17.53125 C 17.992188 -17.53125 16.6875 -16.921875 15.5625 -15.703125 C 14.445312 -14.492188 13.59375 -12.953125 13 -11.078125 L 13 -4.546875 L 17.515625 -4.546875 L 17.515625 0 Z M 18.65625 -13.265625 L 18.65625 -19.921875 L 19.65625 -22.796875 L 24.171875 -22.796875 L 22.90625 -13.265625 Z M 18.65625 -13.265625 "/></g></g></g></svg>